<?xml version="1.0" standalone="no"?>
<!DOCTYPE svg PUBLIC "-//W3C//DTD SVG 20010904//EN"
 "http://www.w3.org/TR/2001/REC-SVG-20010904/DTD/svg10.dtd">
<svg version="1.0" xmlns="http://www.w3.org/2000/svg"
 width="500.000000pt" height="500.000000pt" viewBox="0 0 500.000000 500.000000"
 preserveAspectRatio="xMidYMid meet">
<metadata>
Created by potrace 1.14, written by Peter Selinger 2001-2017
</metadata>
<g transform="translate(0.000000,500.000000) scale(0.100000,-0.100000)"
fill="#000000" stroke="none">
<path d="M2205 4746 c-303 -70 -625 -277 -814 -526 -99 -130 -141 -210 -189
-360 -58 -178 -71 -294 -82 -730 -10 -396 -18 -450 -85 -587 -43 -88 -151
-206 -241 -264 -35 -23 -63 -44 -61 -46 3 -2 53 1 113 7 60 5 143 10 183 10
l75 0 -35 -36 c-57 -60 -125 -94 -190 -94 -31 0 -75 7 -98 15 -45 15 -49 11
-25 -23 27 -39 92 -65 177 -70 42 -2 77 -5 77 -7 0 -1 -16 -38 -35 -83 -147
-338 -80 -600 218 -851 46 -39 87 -71 89 -71 3 0 8 24 11 54 9 88 46 123 103
97 36 -16 39 -35 10 -64 -43 -43 -35 -57 31 -57 43 0 72 -7 111 -27 59 -30
112 -83 112 -113 0 -24 -26 -50 -50 -50 -10 0 -22 -5 -26 -11 -10 -17 55 -77
104 -96 44 -16 74 -14 136 12 17 7 18 5 13 -26 -5 -37 10 -139 23 -153 5 -4
24 4 44 19 41 31 56 26 56 -17 0 -56 22 -108 62 -143 21 -19 43 -35 48 -35 6
0 10 23 10 51 0 57 22 112 54 134 40 29 46 20 46 -68 0 -98 10 -116 80 -152
76 -38 117 -80 135 -136 20 -60 49 -89 87 -89 27 0 29 2 23 34 -10 49 7 72 78
107 147 74 181 118 193 247 7 76 14 83 53 56 32 -23 51 -73 51 -134 0 -27 3
-50 8 -50 4 0 22 9 40 20 40 25 71 89 72 147 0 23 4 44 8 47 5 3 26 -6 46 -20
23 -16 42 -22 47 -17 14 14 29 120 22 155 -6 28 -4 30 13 23 62 -26 92 -29
137 -11 47 18 110 72 104 90 -2 6 -17 14 -35 18 -58 15 -51 74 16 127 56 44
102 61 167 61 65 0 72 16 28 62 -36 37 -19 58 47 58 40 0 52 -4 69 -26 12 -15
21 -35 21 -45 0 -39 24 -27 120 56 257 224 318 419 224 725 -42 138 -43 126
13 135 26 3 66 15 88 25 40 18 105 74 105 90 0 5 -15 4 -32 -1 -18 -6 -65 -11
-104 -11 -60 -1 -79 3 -115 24 -49 29 -96 75 -86 84 3 3 29 1 58 -5 70 -15
299 -27 299 -15 0 5 -19 22 -42 38 -128 91 -250 245 -306 386 -61 155 -77 273
-92 670 -13 347 -25 494 -52 625 -47 230 -113 378 -211 476 -130 128 -285 165
-506 119 l-95 -19 -40 37 c-79 72 -198 142 -316 185 -72 26 -305 33 -395 13z
m990 -701 c28 -18 74 -57 103 -89 101 -107 122 -191 122 -501 0 -248 13 -422
36 -503 11 -35 14 -69 9 -98 l-6 -44 -44 0 -43 0 -21 69 c-28 91 -81 141 -185
174 -97 30 -366 32 -464 3 -86 -26 -136 -64 -157 -121 l-18 -46 -51 3 c-50 3
-51 4 -73 49 -42 89 -136 128 -333 136 -147 6 -252 -7 -330 -43 -87 -40 -123
-84 -149 -182 -12 -43 -12 -43 -54 -40 l-42 3 -9 93 c-10 116 -5 145 43 219
161 249 340 363 816 523 399 134 545 211 704 373 70 72 68 72 146 22z m-651
-1257 c51 -182 183 -338 356 -418 137 -63 252 -51 350 37 77 69 107 140 119
283 l6 75 43 3 43 3 -6 -193 -6 -193 20 25 c27 33 105 184 121 235 20 63 26
64 74 9 25 -29 71 -64 105 -83 34 -18 61 -38 61 -46 0 -26 -52 -159 -92 -236
-83 -161 -164 -218 -248 -174 l-29 15 -6 -35 c-3 -19 -8 -52 -11 -72 -18 -115
-83 -209 -183 -262 -57 -30 -141 -61 -168 -61 -7 0 -21 21 -33 47 -46 105
-106 147 -256 185 -79 19 -115 22 -314 21 -174 0 -242 -4 -299 -17 -146 -33
-223 -86 -268 -185 -24 -53 -24 -53 -61 -47 -68 12 -198 83 -236 129 -56 68
-89 150 -94 234 -3 40 -6 73 -8 73 -2 0 -18 -9 -36 -20 -18 -11 -43 -20 -56
-20 -60 0 -129 68 -186 183 -34 70 -100 246 -94 252 2 1 23 15 48 30 25 15 72
50 105 76 33 27 64 50 68 51 5 2 19 -29 31 -67 25 -78 89 -211 113 -235 14
-13 15 -3 9 103 -3 64 -11 149 -16 189 -12 80 -7 91 36 86 28 -3 29 -5 36 -78
4 -41 17 -106 29 -144 17 -58 30 -78 78 -127 88 -88 184 -109 313 -69 188 58
377 270 413 463 l7 37 52 0 53 0 17 -62z m-110 -1017 c55 -26 98 -23 141 11
l27 21 46 -46 c66 -64 134 -102 232 -130 l85 -25 3 -38 c5 -59 -14 -108 -58
-148 -74 -67 -231 -130 -307 -124 -35 3 -38 6 -41 35 -4 38 16 79 63 128 19
21 35 39 35 41 0 2 -77 4 -171 4 l-171 0 45 -50 c47 -52 71 -115 55 -144 -19
-33 -137 -12 -248 44 -101 51 -160 129 -160 210 0 38 8 43 95 68 94 27 169 69
227 129 23 24 45 42 48 40 3 -2 27 -13 54 -26z"/>
</g>
</svg>
